<svg xmlns="http://www.w3.org/2000/svg" xmlns:xlink="http://www.w3.org/1999/xlink" viewBox="0 0 998.3 165.2"><linearGradient id="a" gradientUnits="userSpaceOnUse" x1="0" y1="195.413" x2="83.43" y2="195.413" gradientTransform="matrix(1 0 0 -1 0 278)"><stop offset="0" stop-color="#564e9f"/><stop offset=".516" stop-color="#9960a7"/><stop offset="1" stop-color="#56b4e0"/></linearGradient><path d="M65.4 1.7c-10.8 2.3-20.9 6.6-30 13-9.1 6.3-16.7 14.2-22.6 23.5-5.7 9-9.5 18.9-11.4 29.4-3.6 19.9.2 40.4 10.8 57.6-.5 1-.5 2.1.1 3 .9 1.4 2.8 1.7 4.1.8.7-.4 1.1-1.1 1.3-1.9.2-.8 0-1.6-.4-2.2-.6-.9-1.6-1.4-2.7-1.3C4.3 107.1.7 87.3 4.2 68.1 8 47.2 19.7 29.1 37.1 17S75.6.3 96.5 4.1s39 15.5 51.1 32.9 16.7 38.5 12.9 59.4c-3.8 20.9-15.5 39-32.9 51.1-16.1 11.1-35.5 16-54.9 13.5-.4-1-1.3-1.7-2.3-1.9-.8-.1-1.6.1-2.2.5-.7.5-1.1 1.1-1.2 1.9-.1.8.1 1.6.5 2.2.5.7 1.1 1.1 1.9 1.2.2 0 .3.1.5.1.9 0 1.8-.4 2.3-1.2 3.4.4 6.7.6 10.1.6 16.6 0 32.9-5.1 46.8-14.7 9.2-6.3 16.7-14.3 22.6-23.5 5.7-9 9.6-18.8 11.4-29.4 1.9-10.5 1.7-21.1-.4-31.5-2.2-10.8-6.6-20.9-12.9-30-6.3-9.2-14.3-16.7-23.5-22.6-9-5.7-18.8-9.5-29.4-11.4-10.4-1.9-21.1-1.7-31.5.4z" fill="url(#a)"/><linearGradient id="b" gradientUnits="userSpaceOnUse" x1="-.122" y1="195.725" x2="83.307" y2="195.725" gradientTransform="matrix(1 0 0 -1 0 278)"><stop offset="0" stop-color="#564e9f"/><stop offset=".516" stop-color="#9960a7"/><stop offset="1" stop-color="#56b4e0"/></linearGradient><path d="M140 32.7c-6.7-7.8-14.7-14-23.8-18.6-8.8-4.4-18.3-7-28.1-7.8-9.9-.8-19.6.4-29 3.4-9.7 3.1-18.6 8.1-26.4 14.7-7.8 6.7-14.1 14.7-18.6 23.8-4.4 8.8-7 18.3-7.8 28.1-.8 9.9.4 19.6 3.4 29 3.1 9.7 8.1 18.6 14.7 26.4 1.3 1.5 2.6 2.9 4 4.3 5.8 5.9 12.5 10.7 19.8 14.3 8.8 4.4 18.3 7 28.1 7.8 1.9.1 3.9.2 5.8.2 16.6 0 32.6-5.4 45.9-15.4 1 .4 2.2.2 3-.4.6-.5 1-1.2 1.1-2 .1-.8-.2-1.6-.7-2.2-1-1.3-2.9-1.4-4.2-.4-.8.7-1.2 1.7-1 2.8-14.3 10.8-31.8 16-49.7 14.6-19.5-1.6-37.3-10.6-50-25.5S7.8 96.2 9.2 76.7c1.5-19.5 10.5-37.3 25.3-50s33.8-19 53.3-17.5 37.3 10.5 50 25.3c11.6 13.6 17.9 30.8 17.6 48.7-1 .5-1.7 1.4-1.7 2.6-.1 1.6 1.3 3 2.9 3.1 1.6.1 3-1.3 3.1-2.9.1-1.1-.5-2-1.4-2.6.4-18.5-6.1-36.5-18.3-50.7z" fill="url(#b)"/><linearGradient id="c" gradientUnits="userSpaceOnUse" x1="-.122" y1="195.703" x2="83.307" y2="195.703" gradientTransform="matrix(1 0 0 -1 0 278)"><stop offset="0" stop-color="#564e9f"/><stop offset=".516" stop-color="#9960a7"/><stop offset="1" stop-color="#56b4e0"/></linearGradient><path d="M17.3 90.5c-.1-.8-.5-1.5-1.1-1.9-.7-.5-1.4-.7-2.2-.5-.8.1-1.5.5-1.9 1.1-.5.7-.7 1.4-.5 2.2.2 1 .8 1.9 1.8 2.3 2.3 14.5 9.1 27.7 19.5 38 1.6 1.6 3.3 3.1 5.1 4.6 7.3 6 15.5 10.4 24.5 13.1 6.5 1.9 13.1 2.9 19.9 2.9 2.3 0 4.5-.1 6.8-.3 9-.9 17.7-3.4 25.7-7.6 8.3-4.3 15.5-10.2 21.6-17.5 6-7.3 10.4-15.5 13.1-24.5 2.6-8.7 3.4-17.6 2.6-26.7-.9-9-3.4-17.7-7.6-25.7-4.3-8.3-10.2-15.5-17.5-21.6-7.3-6-15.5-10.4-24.5-13.1-8.7-2.6-17.6-3.4-26.7-2.6C58.6 14.3 43 22 31.4 34.3c-1-.2-2.2.1-2.9 1-1.1 1.3-1 3.1.3 4.2s3.1 1 4.2-.3c.7-.8.9-1.9.5-2.9 11.1-11.7 26.1-19.1 42.3-20.6 17.8-1.7 35.3 3.6 49.1 15S147.3 58.2 149 76s-3.6 35.3-15 49.1-27.5 22.4-45.3 24.1c-17.8 1.7-35.3-3.6-49.1-15-12.5-10.4-20.9-24.8-23.5-40.8.9-.7 1.4-1.8 1.2-2.9z" fill="url(#c)"/><linearGradient id="d" gradientUnits="userSpaceOnUse" x1="-.122" y1="194.99" x2="83.307" y2="194.99" gradientTransform="matrix(1 0 0 -1 0 278)"><stop offset="0" stop-color="#564e9f"/><stop offset=".516" stop-color="#9960a7"/><stop offset="1" stop-color="#56b4e0"/></linearGradient><path d="M81 147.5c1.1 0 2-.6 2.6-1.5 15.3-.3 30-6.1 41.4-16.4 12.6-11.4 20.1-27 21-44.1.9-17-4.9-33.4-16.3-46-11.4-12.6-27-20.1-44.1-21-17-.9-33.4 4.9-46 16.3C26.9 46.3 19.4 61.9 18.5 79c-.8 15.3 3.9 30.3 13.3 42.4-.4 1-.2 2.1.5 2.9.5.6 1.2 1 2 1.1.8.1 1.6-.1 2.2-.7 1.3-1 1.4-2.9.4-4.2-.7-.8-1.9-1.3-2.9-1C25.1 108 20.6 93.7 21.4 79c.8-16.3 8-31.2 20-42.1C53.5 26 69.1 20.5 85.3 21.3c16.3.8 31.2 8 42.1 20C138.3 53.4 143.8 69 143 85.2c-.8 16.3-8 31.2-20 42.1-10.8 9.8-24.8 15.3-39.4 15.7-.5-1-1.5-1.6-2.6-1.6-1.6 0-2.9 1.3-2.9 2.9 0 .8.3 1.6.8 2.1.6.8 1.3 1.1 2.1 1.1z" fill="url(#d)"/><linearGradient id="e" gradientUnits="userSpaceOnUse" x1="-.122" y1="195.699" x2="83.307" y2="195.699" gradientTransform="matrix(1 0 0 -1 0 278)"><stop offset="0" stop-color="#564e9f"/><stop offset=".516" stop-color="#9960a7"/><stop offset="1" stop-color="#56b4e0"/></linearGradient><path d="M115.9 41c.6.5 1.4.7 2.2.6.8-.1 1.5-.5 2-1.1 1-1.3.8-3.1-.5-4.2-.8-.7-2-.8-2.9-.4-11-8.1-24.5-12.1-38.1-11.2-15.4 1-29.4 7.9-39.6 19.6-10.2 11.6-15.3 26.4-14.3 41.8.9 14 6.9 27 16.7 36.9.9.9 1.9 1.8 2.8 2.6 10.6 9.3 23.9 14.3 37.9 14.3 1.3 0 2.6-.1 3.9-.1 15.4-1 29.4-7.9 39.6-19.6 9-10.3 14.1-23.5 14.3-37.1.9-.5 1.4-1.5 1.4-2.6 0-1.6-1.4-2.9-3-2.9-.8 0-1.5.4-2.1.9-.5.5-.8 1.3-.8 2.1 0 1.1.7 2.1 1.6 2.6-.2 12.9-5 25.4-13.5 35.2-9.6 11-23 17.6-37.6 18.6-14.6 1-28.7-3.8-39.7-13.4s-17.6-23-18.6-37.6c-1-14.6 3.8-28.7 13.4-39.7s23-17.6 37.6-18.6c12.9-.8 25.8 2.9 36.1 10.6-.1.9.3 2.1 1.2 2.7z" fill="url(#e)"/><defs><path id="f" d="M52.9 57.6c-5.4.5-10.1 2.6-13.9 6.6s-5.9 8.6-6.2 14c-.4 6.3 1.7 11.7 6 16.3 2 2.2 4.4 3.9 7.1 5 2.8 1.2 5.7 1.9 8.8 1.9 4.3 0 8.4-1.2 11.9-3.6.7-.5 1-1.4.5-2.2l-2.5-3.7c-.5-.7-1.4-1-2.2-.5-2.3 1.5-4.9 2.2-7.7 2.2-3.9 0-7.3-1.4-10.1-4.2-2.8-2.8-4.2-6.2-4.2-10.2.1-3.7 1.3-6.9 3.9-9.6 2.5-2.7 5.6-4.2 9.3-4.5 3.2-.3 6.2.5 8.8 2.2.5.3 1 .3 1.2.2.3-.1.7-.2 1-.7l2.5-3.7c.5-.7.3-1.7-.5-2.2-3.6-2.3-7.6-3.6-11.8-3.6-.7.2-1.2.2-1.9.3"/></defs><clipPath id="g"><use xlink:href="#f" overflow="visible"/></clipPath><linearGradient id="h" gradientUnits="userSpaceOnUse" x1="-1.24" y1="198.616" x2="82.189" y2="198.616" gradientTransform="matrix(1 0 0 -1 0 278)"><stop offset="0" stop-color="#564e9f"/><stop offset=".516" stop-color="#9960a7"/><stop offset="1" stop-color="#56b4e0"/></linearGradient><path clip-path="url(#g)" fill="url(#h)" d="M32.4 57.1l35.6.4-.5 44.2-35.5-.4z"/><defs><path id="i" d="M76.9 57.5c-1 0-1.6.7-1.6 1.6v40.6c0 1 .7 1.6 1.6 1.6h4.5c1 0 1.6-.7 1.6-1.6V59.1c0-1-.7-1.6-1.6-1.6h-4.5z"/></defs><clipPath id="j"><use xlink:href="#i" overflow="visible"/></clipPath><linearGradient id="k" gradientUnits="userSpaceOnUse" x1="-1.24" y1="198.616" x2="82.189" y2="198.616" gradientTransform="matrix(1 0 0 -1 0 278)"><stop offset="0" stop-color="#564e9f"/><stop offset=".516" stop-color="#9960a7"/><stop offset="1" stop-color="#56b4e0"/></linearGradient><path clip-path="url(#j)" fill="url(#k)" d="M75.4 57.4l8.1.1-.4 43.9-8.1-.1z"/><defs><path id="l" d="M125.5 57.5c-.7 0-1.2.3-1.6.7L110.7 73 97.4 58.2c-.5-.5-1-.7-1.6-.7h-1.7c-1 0-1.6.7-1.6 1.6v40.6c0 1 .7 1.6 1.6 1.6h4.3c1 0 1.6-.7 1.6-1.6V72.2l9.6 10.7c.3.4.7.5 1.1.5.3 0 .7-.1 1.2-.5l9.6-10.7v27.6c0 1 .7 1.6 1.6 1.6h4.3c1 0 1.6-.7 1.6-1.6V59.1c0-1-.7-1.6-1.6-1.6h-1.9z"/></defs><clipPath id="m"><use xlink:href="#l" overflow="visible"/></clipPath><linearGradient id="n" gradientUnits="userSpaceOnUse" x1="-1.24" y1="198.616" x2="82.189" y2="198.616" gradientTransform="matrix(1 0 0 -1 0 278)"><stop offset="0" stop-color="#564e9f"/><stop offset=".516" stop-color="#9960a7"/><stop offset="1" stop-color="#56b4e0"/></linearGradient><path clip-path="url(#m)" fill="url(#n)" d="M92.5 57.1l36.7.4-.5 44.2-36.7-.4z"/><defs><path id="o" d="M196.2 57.4c-5.5.5-10.1 2.7-14 6.6-3.9 4-6 8.7-6.3 14.2-.4 6.3 1.7 11.8 6.1 16.5 2.1 2.2 4.5 3.9 7.2 5 2.8 1.2 5.8 1.9 8.9 1.9 4.4 0 8.4-1.2 12-3.6.8-.5.9-1.4.5-2.2L208 92c-.5-.8-1.4-.9-2.2-.5-2.4 1.5-4.9 2.3-7.8 2.3-4 0-7.4-1.4-10.2-4.3s-4.3-6.3-4.2-10.3c.1-3.7 1.3-6.9 3.9-9.7 2.6-2.7 5.7-4.3 9.4-4.5 3.2-.3 6.3.5 8.9 2.3.5.3.9.3 1.2.2.3-.1.7-.2.9-.7l2.6-3.8c.5-.8.3-1.7-.5-2.2-3.6-2.4-7.7-3.6-11.9-3.6-.7.1-1.2.1-1.9.2"/></defs><clipPath id="p"><use xlink:href="#o" overflow="visible"/></clipPath><linearGradient id="q" gradientUnits="userSpaceOnUse" x1="104.18" y1="276.894" x2="105.03" y2="276.894" gradientTransform="rotate(.597 5718890.025 -2123872.772) scale(215.2384)"><stop offset="0" stop-color="#554c9e"/><stop offset=".516" stop-color="#985fa6"/><stop offset="1" stop-color="#54b4e0"/></linearGradient><path clip-path="url(#p)" fill="url(#q)" d="M175.6 56.9l35.9.4-.5 44.6-35.9-.3z"/><defs><path id="r" d="M216 57.3c-.9 0-1.6.7-1.6 1.6V100c0 .9.7 1.6 1.6 1.6h23.2c.9 0 1.6-.7 1.6-1.6v-4.5c0-.9-.7-1.6-1.6-1.6h-17.1v-35c0-.9-.7-1.6-1.6-1.6H216z"/></defs><clipPath id="s"><use xlink:href="#r" overflow="visible"/></clipPath><linearGradient id="t" gradientUnits="userSpaceOnUse" x1="104.18" y1="276.894" x2="105.03" y2="276.894" gradientTransform="rotate(.597 5718914.748 -2123872.527) scale(215.2384)"><stop offset="0" stop-color="#554c9e"/><stop offset=".516" stop-color="#985fa6"/><stop offset="1" stop-color="#54b4e0"/></linearGradient><path clip-path="url(#s)" fill="url(#t)" d="M214.4 57l26.9.3-.5 44.5-26.9-.2z"/><defs><path id="u" d="M253.8 89.6c-2.8-2.8-4.2-6.2-4.2-10.1 0-4 1.4-7.3 4.2-10.1 2.8-2.8 6.2-4.2 10.1-4.2s7.3 1.4 10.1 4.2c2.8 2.8 4.2 6.2 4.2 10.1 0 4-1.4 7.3-4.2 10.1-2.8 2.8-6.2 4.2-10.1 4.2s-7.2-1.3-10.1-4.2m-5.4-25.8c-4.3 4.3-6.4 9.6-6.4 15.6s2.2 11.3 6.4 15.6c4.3 4.3 9.6 6.4 15.6 6.4 6.1 0 11.3-2.2 15.6-6.4 4.3-4.3 6.4-9.6 6.4-15.6s-2.2-11.3-6.4-15.6c-4.3-4.3-9.6-6.4-15.6-6.4-6.1-.1-11.3 2.1-15.6 6.4"/></defs><clipPath id="v"><use xlink:href="#u" overflow="visible"/></clipPath><linearGradient id="w" gradientUnits="userSpaceOnUse" x1="104.18" y1="276.895" x2="105.03" y2="276.895" gradientTransform="rotate(.597 5718967.195 -2123872.234) scale(215.2384)"><stop offset="0" stop-color="#554c9e"/><stop offset=".516" stop-color="#985fa6"/><stop offset="1" stop-color="#54b4e0"/></linearGradient><path clip-path="url(#v)" fill="url(#w)" d="M241.9 56.8l44.7.5-.5 44.7-44.7-.4z"/><defs><path id="x" d="M318 57.3c-.9 0-1.6.7-1.6 1.6v26.4c0 2.4-.9 4.5-2.7 6.2-1.8 1.7-3.8 2.5-6.3 2.4-2.3-.1-4.2-.9-5.8-2.7s-2.4-3.7-2.4-6.1V58.9c0-.9-.7-1.6-1.6-1.6h-4.5c-.9 0-1.6.7-1.6 1.6V85c0 4.5 1.6 8.4 4.8 11.7 3.1 3.2 6.9 4.8 11.3 4.8h.3c4.4-.1 8.1-1.7 11.3-4.8 3.1-3.1 4.6-6.9 4.6-11.4V58.9c0-.9-.7-1.6-1.6-1.6H318z"/></defs><clipPath id="y"><use xlink:href="#x" overflow="visible"/></clipPath><linearGradient id="z" gradientUnits="userSpaceOnUse" x1="104.18" y1="276.896" x2="105.03" y2="276.896" gradientTransform="rotate(.597 5719027.131 -2123871.99) scale(215.2384)"><stop offset="0" stop-color="#554c9e"/><stop offset=".516" stop-color="#985fa6"/><stop offset="1" stop-color="#54b4e0"/></linearGradient><path clip-path="url(#y)" fill="url(#z)" d="M291.6 57l32.9.3-.5 44.5-32.8-.2z"/><defs><path id="A" d="M339.4 65h7.1c4.1 0 7.4 1.4 10.2 4.2 2.8 2.8 4.3 6.2 4.3 10.2 0 4-1.4 7.3-4.3 10.2-2.8 2.8-6.2 4.3-10.2 4.3h-7.1V65zm-6.2-7.8c-.9 0-1.6.7-1.6 1.6v41.1c0 .9.7 1.6 1.6 1.6h12.9c6.1 0 11.4-2.1 15.7-6.3 4.4-4.2 6.6-9.4 6.8-15.4.1-6.2-2-11.6-6.3-15.9s-9.7-6.6-15.8-6.6c0-.1-13.3-.1-13.3-.1z"/></defs><clipPath id="B"><use xlink:href="#A" overflow="visible"/></clipPath><linearGradient id="C" gradientUnits="userSpaceOnUse" x1="104.18" y1="276.895" x2="105.03" y2="276.895" gradientTransform="rotate(.597 5719061.597 -2123871.796) scale(215.2384)"><stop offset="0" stop-color="#554c9e"/><stop offset=".516" stop-color="#985fa6"/><stop offset="1" stop-color="#54b4e0"/></linearGradient><path clip-path="url(#B)" fill="url(#C)" d="M331.6 56.8l37.6.4-.5 44.7-37.6-.3z"/><defs><path id="D" d="M393.9 57.3c-.9 0-1.6.7-1.6 1.6v41c0 .9.7 1.6 1.6 1.6h4.5c.9 0 1.6-.7 1.6-1.6v-41c0-.9-.7-1.6-1.6-1.6h-4.5z"/></defs><clipPath id="E"><use xlink:href="#D" overflow="visible"/></clipPath><linearGradient id="F" gradientUnits="userSpaceOnUse" x1="105.183" y1="276.557" x2="106.032" y2="276.557" gradientTransform="rotate(.597 5712119.436 -2123907.904) scale(215.2384)"><stop offset="0" stop-color="#554c9e"/><stop offset=".516" stop-color="#985fa6"/><stop offset="1" stop-color="#54b4e0"/></linearGradient><path clip-path="url(#E)" fill="url(#F)" d="M392.2 57.2l8.3.1-.5 44.3h-8.1z"/><defs><path id="G" d="M434.6 57.3c-.9 0-1.6.7-1.6 1.6V85l-20.3-27c-.3-.5-.8-.7-1.3-.7h-1.9c-.9 0-1.6.7-1.6 1.6V100c0 .9.7 1.6 1.6 1.6h4.4c.9 0 1.6-.7 1.6-1.6V74.1l20.2 26.9c.3.4.8.6 1.2.6h2.1c.9 0 1.6-.7 1.6-1.6V59c0-.9-.7-1.6-1.6-1.6h-4.4z"/></defs><clipPath id="H"><use xlink:href="#G" overflow="visible"/></clipPath><linearGradient id="I" gradientUnits="userSpaceOnUse" x1="105.183" y1="276.557" x2="106.032" y2="276.557" gradientTransform="rotate(.597 5712153.901 -2123907.892) scale(215.2384)"><stop offset="0" stop-color="#554c9e"/><stop offset=".516" stop-color="#985fa6"/><stop offset="1" stop-color="#54b4e0"/></linearGradient><path clip-path="url(#H)" fill="url(#I)" d="M408.1 56.9l32.8.4-.4 44.5-32.9-.2z"/><defs><path id="J" d="M450.1 57.3c-.9 0-1.6.7-1.6 1.6V100c0 .9.7 1.6 1.6 1.6h4.5c.9 0 1.6-.7 1.6-1.6V83.3h14.6c.9 0 1.6-.7 1.6-1.6v-4.5c0-.9-.7-1.6-1.6-1.6h-14.6V65h19.2c.9 0 1.6-.7 1.6-1.6v-4.5c0-.9-.7-1.6-1.6-1.6h-25.3z"/></defs><clipPath id="K"><use xlink:href="#J" overflow="visible"/></clipPath><linearGradient id="L" gradientUnits="userSpaceOnUse" x1="105.183" y1="276.557" x2="106.032" y2="276.557" gradientTransform="rotate(.597 5712201.103 -2123907.582) scale(215.2384)"><stop offset="0" stop-color="#554c9e"/><stop offset=".516" stop-color="#985fa6"/><stop offset="1" stop-color="#54b4e0"/></linearGradient><path clip-path="url(#K)" fill="url(#L)" d="M448.5 57l29 .3-.5 44.5-28.9-.2z"/><defs><path id="M" d="M488.9 89.6c-2.8-2.8-4.2-6.2-4.2-10.1 0-4 1.4-7.3 4.2-10.1 2.8-2.8 6.2-4.2 10.1-4.2 4 0 7.3 1.4 10.1 4.2 2.8 2.8 4.2 6.2 4.2 10.1 0 4-1.4 7.3-4.2 10.1-2.8 2.8-6.2 4.2-10.1 4.2-4 0-7.4-1.3-10.1-4.2m-5.5-25.8c-4.3 4.3-6.4 9.6-6.4 15.6s2.2 11.3 6.4 15.6c4.3 4.3 9.6 6.4 15.6 6.4 6.1 0 11.3-2.2 15.6-6.4 4.3-4.3 6.4-9.6 6.4-15.6s-2.2-11.3-6.4-15.6c-4.3-4.3-9.6-6.4-15.6-6.4s-11.3 2.1-15.6 6.4"/></defs><clipPath id="N"><use xlink:href="#M" overflow="visible"/></clipPath><linearGradient id="O" gradientUnits="userSpaceOnUse" x1="105.183" y1="276.558" x2="106.032" y2="276.558" gradientTransform="rotate(.597 5712240.066 -2123907.411) scale(215.2384)"><stop offset="0" stop-color="#554c9e"/><stop offset=".516" stop-color="#985fa6"/><stop offset="1" stop-color="#54b4e0"/></linearGradient><path clip-path="url(#N)" fill="url(#O)" d="M476.9 56.8l44.7.5-.5 44.7-44.6-.4z"/><defs><path id="P" d="M535 65h9.2c1.5 0 2.7.5 3.8 1.5 1 1 1.6 2.3 1.6 3.8s-.5 2.7-1.6 3.8c-1 1-2.3 1.6-3.8 1.6H535V65zm-6.1-7.7c-.9 0-1.6.7-1.6 1.6v40.9c0 .9.7 1.6 1.6 1.6h4.5c.9 0 1.6-.7 1.6-1.6V83.4h5.3l9.5 17.2c.3.6.8.9 1.4.9h5.2c.6 0 1.1-.3 1.3-.8.3-.5.3-1 .1-1.5l-9.2-16.7c2.2-.8 4.1-2.1 5.7-3.9 1.9-2.3 2.9-4.9 3-8 .1-3.7-1.1-6.8-3.7-9.5s-5.7-4-9.4-4c.1.2-15.3.2-15.3.2z"/></defs><clipPath id="Q"><use xlink:href="#P" overflow="visible"/></clipPath><linearGradient id="R" gradientUnits="userSpaceOnUse" x1="105.183" y1="276.558" x2="106.032" y2="276.558" gradientTransform="rotate(.597 5712291.008 -2123907.111) scale(215.2384)"><stop offset="0" stop-color="#554c9e"/><stop offset=".516" stop-color="#985fa6"/><stop offset="1" stop-color="#54b4e0"/></linearGradient><path clip-path="url(#Q)" fill="url(#R)" d="M527.4 57l31 .3-.4 44.5-31.1-.2z"/><defs><path id="S" d="M596.2 57.3c-.7 0-1.2.3-1.6.8l-13.4 15-13.4-15c-.5-.5-1-.8-1.6-.8h-1.7c-.9 0-1.6.7-1.6 1.6v41c0 .9.7 1.6 1.6 1.6h4.4c.9 0 1.6-.7 1.6-1.6V72.2l9.7 10.8c.3.4.7.6 1.1.6.3 0 .8-.1 1.2-.6l9.7-10.8V100c0 .9.7 1.6 1.6 1.6h4.4c.9 0 1.6-.7 1.6-1.6V58.9c0-.9-.7-1.6-1.6-1.6h-2z"/></defs><clipPath id="T"><use xlink:href="#S" overflow="visible"/></clipPath><linearGradient id="U" gradientUnits="userSpaceOnUse" x1="105.183" y1="276.558" x2="106.032" y2="276.558" gradientTransform="rotate(.597 5712337.461 -2123906.787) scale(215.2384)"><stop offset="0" stop-color="#554c9e"/><stop offset=".516" stop-color="#985fa6"/><stop offset="1" stop-color="#54b4e0"/></linearGradient><path clip-path="url(#T)" fill="url(#U)" d="M563 56.9l37 .4-.5 44.6-37-.3z"/><defs><path id="V" d="M623.7 69.3l3.5 8.3h-6.9l3.4-8.3zm-2-12.1c-.6 0-1.1.4-1.4.9l-17.1 41c-.3.5-.2 1 .1 1.5.3.5.8.7 1.3.7h4.6c.7 0 1.2-.4 1.4-.9l6.3-15.3h13.2l6.3 15.3c.2.7.8 1 1.5 1h4.6c.6 0 1-.3 1.3-.7.3-.5.4-1 .1-1.5l-17.1-41.1c-.2-.7-.8-1-1.5-1l-3.6.1z"/></defs><clipPath id="W"><use xlink:href="#V" overflow="visible"/></clipPath><linearGradient id="X" gradientUnits="userSpaceOnUse" x1="105.183" y1="276.558" x2="106.032" y2="276.558" gradientTransform="rotate(.597 5712381.66 -2123906.644) scale(215.2384)"><stop offset="0" stop-color="#554c9e"/><stop offset=".516" stop-color="#985fa6"/><stop offset="1" stop-color="#54b4e0"/></linearGradient><path clip-path="url(#W)" fill="url(#X)" d="M603 56.8l41.9.4-.4 44.7-42-.3z"/><defs><path id="Y" d="M646.2 57.3c-.9 0-1.6.7-1.6 1.6v4.5c0 .9.7 1.6 1.6 1.6h9.8v35c0 .9.7 1.6 1.6 1.6h4.5c.9 0 1.6-.7 1.6-1.6V65h9.8c.9 0 1.6-.7 1.6-1.6v-4.5c0-.9-.7-1.6-1.6-1.6h-27.3z"/></defs><clipPath id="Z"><use xlink:href="#Y" overflow="visible"/></clipPath><linearGradient id="aa" gradientUnits="userSpaceOnUse" x1="105.183" y1="276.559" x2="106.032" y2="276.559" gradientTransform="rotate(.597 5712436.351 -2123906.373) scale(215.2384)"><stop offset="0" stop-color="#554c9e"/><stop offset=".516" stop-color="#985fa6"/><stop offset="1" stop-color="#54b4e0"/></linearGradient><path clip-path="url(#Z)" fill="url(#aa)" d="M644.6 57l30.8.3-.4 44.5-30.9-.2z"/><defs><path id="ab" d="M680.4 57.3c-.9 0-1.6.7-1.6 1.6v41c0 .9.7 1.6 1.6 1.6h4.5c.9 0 1.6-.7 1.6-1.6v-41c0-.9-.7-1.6-1.6-1.6h-4.5z"/></defs><clipPath id="ac"><use xlink:href="#ab" overflow="visible"/></clipPath><linearGradient id="ad" gradientUnits="userSpaceOnUse" x1="105.183" y1="276.559" x2="106.032" y2="276.559" gradientTransform="rotate(.597 5712456.586 -2123906.286) scale(215.2384)"><stop offset="0" stop-color="#554c9e"/><stop offset=".516" stop-color="#985fa6"/><stop offset="1" stop-color="#54b4e0"/></linearGradient><path clip-path="url(#ac)" fill="url(#ad)" d="M678.8 57.2l8.2.1-.5 44.3h-8.1z"/><defs><path id="ae" d="M703.5 89.6c-2.8-2.8-4.2-6.2-4.2-10.1 0-4 1.4-7.3 4.2-10.1 2.8-2.8 6.2-4.2 10.1-4.2s7.3 1.4 10.1 4.2c2.8 2.8 4.2 6.2 4.2 10.1 0 4-1.4 7.3-4.2 10.1-2.8 2.8-6.2 4.2-10.1 4.2s-7.3-1.3-10.1-4.2M698 63.8c-4.3 4.3-6.4 9.6-6.4 15.6s2.2 11.3 6.4 15.6c4.3 4.3 9.6 6.4 15.6 6.4s11.3-2.2 15.6-6.4c4.3-4.3 6.4-9.6 6.4-15.6s-2.2-11.3-6.4-15.6c-4.3-4.3-9.6-6.4-15.6-6.4-6-.1-11.3 2.1-15.6 6.4"/></defs><clipPath id="af"><use xlink:href="#ae" overflow="visible"/></clipPath><linearGradient id="ag" gradientUnits="userSpaceOnUse" x1="105.183" y1="276.559" x2="106.032" y2="276.559" gradientTransform="rotate(.597 5712492.548 -2123906.1) scale(215.2384)"><stop offset="0" stop-color="#554c9e"/><stop offset=".516" stop-color="#985fa6"/><stop offset="1" stop-color="#54b4e0"/></linearGradient><path clip-path="url(#af)" fill="url(#ag)" d="M691.5 56.8l44.7.5-.5 44.7-44.6-.4z"/><defs><path id="ah" d="M768.5 57.3c-.9 0-1.6.7-1.6 1.6V85l-20.3-27c-.3-.5-.8-.7-1.3-.7h-1.9c-.9 0-1.6.7-1.6 1.6V100c0 .9.7 1.6 1.6 1.6h4.4c.9 0 1.6-.7 1.6-1.6V74.1l20.2 26.9c.3.4.8.6 1.2.6h2.1c.9 0 1.6-.7 1.6-1.6V59c0-.9-.7-1.6-1.6-1.6h-4.4z"/></defs><clipPath id="ai"><use xlink:href="#ah" overflow="visible"/></clipPath><linearGradient id="aj" gradientUnits="userSpaceOnUse" x1="105.183" y1="276.56" x2="106.032" y2="276.56" gradientTransform="rotate(.597 5712547.239 -2123905.829) scale(215.2384)"><stop offset="0" stop-color="#554c9e"/><stop offset=".516" stop-color="#985fa6"/><stop offset="1" stop-color="#54b4e0"/></linearGradient><path clip-path="url(#ai)" fill="url(#aj)" d="M742 56.9l32.9.4-.5 44.5-32.9-.2z"/><defs><path id="ak" d="M835 57.3c-.7 0-1.2.3-1.6.8l-13.5 15-13.4-15c-.5-.5-1-.8-1.6-.8h-1.7c-.9 0-1.6.7-1.6 1.6v41c0 .9.7 1.6 1.6 1.6h4.4c.9 0 1.6-.7 1.6-1.6V72.2l9.7 10.8c.3.4.7.6 1.1.6.3 0 .8-.1 1.2-.6l9.7-10.8V100c0 .9.7 1.6 1.6 1.6h4.4c.9 0 1.6-.7 1.6-1.6V58.9c0-.9-.7-1.6-1.6-1.6H835z"/></defs><clipPath id="al"><use xlink:href="#ak" overflow="visible"/></clipPath><linearGradient id="am" gradientUnits="userSpaceOnUse" x1="107.082" y1="276.21" x2="107.931" y2="276.21" gradientTransform="rotate(.597 5705387.81 -2123943.048) scale(215.2384)"><stop offset="0" stop-color="#554c9e"/><stop offset=".516" stop-color="#985fa6"/><stop offset="1" stop-color="#54b4e0"/></linearGradient><path clip-path="url(#al)" fill="url(#am)" d="M801.6 56.9l37.1.4-.5 44.6-37-.3z"/><defs><path id="an" d="M855.2 89.6c-2.8-2.8-4.2-6.2-4.2-10.1 0-4 1.4-7.3 4.2-10.1 2.8-2.8 6.2-4.2 10.1-4.2s7.3 1.4 10.1 4.2c2.8 2.8 4.2 6.2 4.2 10.1 0 4-1.4 7.3-4.2 10.1-2.8 2.8-6.2 4.2-10.1 4.2s-7.3-1.3-10.1-4.2m-5.4-25.8c-4.3 4.3-6.4 9.6-6.4 15.6s2.2 11.3 6.4 15.6c4.3 4.3 9.6 6.4 15.6 6.4s11.3-2.2 15.6-6.4c4.3-4.3 6.4-9.6 6.4-15.6s-2.2-11.3-6.4-15.6c-4.3-4.3-9.6-6.4-15.6-6.4-6.1-.1-11.4 2.1-15.6 6.4"/></defs><clipPath id="ao"><use xlink:href="#an" overflow="visible"/></clipPath><linearGradient id="ap" gradientUnits="userSpaceOnUse" x1="107.082" y1="276.21" x2="107.931" y2="276.21" gradientTransform="rotate(.597 5705441.005 -2123942.76) scale(215.2384)"><stop offset="0" stop-color="#554c9e"/><stop offset=".516" stop-color="#985fa6"/><stop offset="1" stop-color="#54b4e0"/></linearGradient><path clip-path="url(#ao)" fill="url(#ap)" d="M843.2 56.8l44.8.5-.5 44.7-44.7-.4z"/><defs><path id="aq" d="M901.4 65h7.1c4.1 0 7.4 1.4 10.2 4.2 2.8 2.8 4.3 6.2 4.3 10.2 0 4.1-1.4 7.3-4.3 10.2-2.8 2.8-6.2 4.3-10.2 4.3h-7.1V65zm-6.1-7.8c-.9 0-1.6.7-1.6 1.6v41.1c0 .9.7 1.6 1.6 1.6h12.9c6.1 0 11.4-2.1 15.7-6.3 4.4-4.2 6.6-9.4 6.8-15.4.1-6.2-2-11.6-6.3-15.9-4.4-4.4-9.7-6.6-15.8-6.6-.1-.1-13.3-.1-13.3-.1z"/></defs><clipPath id="ar"><use xlink:href="#aq" overflow="visible"/></clipPath><linearGradient id="as" gradientUnits="userSpaceOnUse" x1="107.082" y1="276.21" x2="107.931" y2="276.21" gradientTransform="rotate(.597 5705488.953 -2123942.636) scale(215.2384)"><stop offset="0" stop-color="#554c9e"/><stop offset=".516" stop-color="#985fa6"/><stop offset="1" stop-color="#54b4e0"/></linearGradient><path clip-path="url(#ar)" fill="url(#as)" d="M893.6 56.8l37.7.4-.5 44.7-37.6-.3z"/><defs><path id="at" d="M938.5 57.3c-.9 0-1.6.7-1.6 1.6v41c0 .9.7 1.6 1.6 1.6h27.2c.9 0 1.6-.7 1.6-1.6v-4.5c0-.9-.7-1.6-1.6-1.6h-21V83.3h14.9c.9 0 1.6-.7 1.6-1.6v-4.5c0-.9-.7-1.6-1.6-1.6h-14.9V65.1h21c.9 0 1.6-.7 1.6-1.6V59c0-.9-.7-1.6-1.6-1.6h-27.2z"/></defs><clipPath id="au"><use xlink:href="#at" overflow="visible"/></clipPath><linearGradient id="av" gradientUnits="userSpaceOnUse" x1="107.082" y1="276.211" x2="107.931" y2="276.211" gradientTransform="rotate(.597 5705542.896 -2123942.36) scale(215.2384)"><stop offset="0" stop-color="#554c9e"/><stop offset=".516" stop-color="#985fa6"/><stop offset="1" stop-color="#54b4e0"/></linearGradient><path clip-path="url(#au)" fill="url(#av)" d="M937 57l30.8.3-.4 44.5-30.8-.2z"/><defs><path id="aw" d="M973.5 57.3c-.9 0-1.6.7-1.6 1.6V100c0 .9.7 1.6 1.6 1.6h23.2c.9 0 1.6-.7 1.6-1.6v-4.5c0-.9-.7-1.6-1.6-1.6h-17.1v-35c0-.9-.7-1.6-1.6-1.6h-4.5z"/></defs><clipPath id="ax"><use xlink:href="#aw" overflow="visible"/></clipPath><linearGradient id="ay" gradientUnits="userSpaceOnUse" x1="107.082" y1="276.211" x2="107.931" y2="276.211" gradientTransform="rotate(.597 5705572.865 -2123942.143) scale(215.2384)"><stop offset="0" stop-color="#554c9e"/><stop offset=".516" stop-color="#985fa6"/><stop offset="1" stop-color="#54b4e0"/></linearGradient><path clip-path="url(#ax)" fill="url(#ay)" d="M972 57l26.8.3-.5 44.5-26.8-.2z"/></svg>